<svg id="visual" viewBox="0 0 900 600" width="900" height="600" xmlns="http://www.w3.org/2000/svg" xmlns:xlink="http://www.w3.org/1999/xlink" version="1.1"><rect x="0" y="0" width="900" height="600" fill="#002233"></rect><path d="M0 320L129 320L129 312L257 312L257 236L386 236L386 295L514 295L514 283L643 283L643 243L771 243L771 281L900 281L900 340L900 0L900 0L771 0L771 0L643 0L643 0L514 0L514 0L386 0L386 0L257 0L257 0L129 0L129 0L0 0Z" fill="#0066ff"></path><path d="M0 187L129 187L129 210L257 210L257 195L386 195L386 235L514 235L514 166L643 166L643 203L771 203L771 253L900 253L900 176L900 0L900 0L771 0L771 0L643 0L643 0L514 0L514 0L386 0L386 0L257 0L257 0L129 0L129 0L0 0Z" fill="#0059ce"></path><path d="M0 75L129 75L129 107L257 107L257 88L386 88L386 106L514 106L514 93L643 93L643 97L771 97L771 139L900 139L900 137L900 0L900 0L771 0L771 0L643 0L643 0L514 0L514 0L386 0L386 0L257 0L257 0L129 0L129 0L0 0Z" fill="#114a9e"></path></svg>