<svg id="visual" viewBox="0 0 960 540" width="960" height="540" xmlns="http://www.w3.org/2000/svg" xmlns:xlink="http://www.w3.org/1999/xlink" version="1.1"><rect x="0" y="0" width="960" height="540" fill="#001220"></rect><path d="M0 301L13.3 303.2C26.7 305.3 53.3 309.7 80 310.7C106.7 311.7 133.3 309.3 160 311.7C186.7 314 213.3 321 240 330.7C266.7 340.3 293.3 352.7 320 346.5C346.7 340.3 373.3 315.7 400 308C426.7 300.3 453.3 309.7 480 313.8C506.7 318 533.3 317 560 315.7C586.7 314.3 613.3 312.7 640 308.3C666.7 304 693.3 297 720 290.8C746.7 284.7 773.3 279.3 800 276.2C826.7 273 853.3 272 880 277.8C906.7 283.7 933.3 296.3 946.7 302.7L960 309L960 541L946.7 541C933.3 541 906.7 541 880 541C853.3 541 826.7 541 800 541C773.3 541 746.7 541 720 541C693.3 541 666.7 541 640 541C613.3 541 586.7 541 560 541C533.3 541 506.7 541 480 541C453.3 541 426.7 541 400 541C373.3 541 346.7 541 320 541C293.3 541 266.7 541 240 541C213.3 541 186.7 541 160 541C133.3 541 106.7 541 80 541C53.3 541 26.7 541 13.3 541L0 541Z" fill="#001122"></path><path d="M0 398L13.3 392.2C26.7 386.3 53.3 374.7 80 374.5C106.7 374.3 133.3 385.7 160 384C186.7 382.3 213.3 367.7 240 359.8C266.7 352 293.3 351 320 360.3C346.7 369.7 373.3 389.3 400 397.3C426.7 405.3 453.3 401.7 480 386.8C506.7 372 533.3 346 560 346.3C586.7 346.7 613.3 373.3 640 377.7C666.7 382 693.3 364 720 356.8C746.7 349.7 773.3 353.3 800 351.3C826.7 349.3 853.3 341.7 880 347.5C906.7 353.3 933.3 372.7 946.7 382.3L960 392L960 541L946.7 541C933.3 541 906.7 541 880 541C853.3 541 826.7 541 800 541C773.3 541 746.7 541 720 541C693.3 541 666.7 541 640 541C613.3 541 586.7 541 560 541C533.3 541 506.7 541 480 541C453.3 541 426.7 541 400 541C373.3 541 346.7 541 320 541C293.3 541 266.7 541 240 541C213.3 541 186.7 541 160 541C133.3 541 106.7 541 80 541C53.3 541 26.7 541 13.3 541L0 541Z" fill="#002955"></path><path d="M0 416L13.3 417.3C26.7 418.7 53.3 421.3 80 419.8C106.7 418.3 133.3 412.7 160 415.3C186.7 418 213.3 429 240 424.2C266.7 419.3 293.3 398.7 320 392.2C346.7 385.7 373.3 393.3 400 395C426.7 396.7 453.3 392.3 480 387.3C506.7 382.3 533.3 376.7 560 374.2C586.7 371.7 613.3 372.3 640 374C666.7 375.7 693.3 378.3 720 380.5C746.7 382.7 773.3 384.3 800 387.8C826.7 391.3 853.3 396.7 880 393C906.7 389.3 933.3 376.7 946.7 370.3L960 364L960 541L946.7 541C933.3 541 906.7 541 880 541C853.3 541 826.7 541 800 541C773.3 541 746.7 541 720 541C693.3 541 666.7 541 640 541C613.3 541 586.7 541 560 541C533.3 541 506.7 541 480 541C453.3 541 426.7 541 400 541C373.3 541 346.7 541 320 541C293.3 541 266.7 541 240 541C213.3 541 186.7 541 160 541C133.3 541 106.7 541 80 541C53.3 541 26.7 541 13.3 541L0 541Z" fill="#003e8c"></path><path d="M0 423L13.3 423.5C26.7 424 53.3 425 80 432.2C106.7 439.3 133.3 452.7 160 461.3C186.7 470 213.3 474 240 470.8C266.7 467.7 293.3 457.3 320 457.3C346.7 457.3 373.3 467.7 400 462.8C426.7 458 453.3 438 480 432.2C506.7 426.3 533.3 434.7 560 439.7C586.7 444.7 613.3 446.3 640 450.8C666.7 455.3 693.3 462.7 720 465.8C746.7 469 773.3 468 800 461.8C826.7 455.7 853.3 444.3 880 444.8C906.7 445.3 933.3 457.7 946.7 463.8L960 470L960 541L946.7 541C933.3 541 906.7 541 880 541C853.3 541 826.7 541 800 541C773.3 541 746.7 541 720 541C693.3 541 666.7 541 640 541C613.3 541 586.7 541 560 541C533.3 541 506.7 541 480 541C453.3 541 426.7 541 400 541C373.3 541 346.7 541 320 541C293.3 541 266.7 541 240 541C213.3 541 186.7 541 160 541C133.3 541 106.7 541 80 541C53.3 541 26.7 541 13.3 541L0 541Z" fill="#0052c5"></path><path d="M0 460L13.3 461.5C26.7 463 53.3 466 80 473.2C106.7 480.3 133.3 491.7 160 496C186.7 500.3 213.3 497.7 240 496C266.7 494.3 293.3 493.7 320 490.2C346.7 486.7 373.3 480.3 400 476.7C426.7 473 453.3 472 480 472.7C506.7 473.3 533.3 475.7 560 480.2C586.7 484.7 613.3 491.3 640 489.8C666.7 488.3 693.3 478.7 720 479.3C746.7 480 773.3 491 800 491C826.7 491 853.3 480 880 476.8C906.7 473.7 933.3 478.3 946.7 480.7L960 483L960 541L946.7 541C933.3 541 906.7 541 880 541C853.3 541 826.7 541 800 541C773.3 541 746.7 541 720 541C693.3 541 666.7 541 640 541C613.3 541 586.7 541 560 541C533.3 541 506.7 541 480 541C453.3 541 426.7 541 400 541C373.3 541 346.7 541 320 541C293.3 541 266.7 541 240 541C213.3 541 186.7 541 160 541C133.3 541 106.7 541 80 541C53.3 541 26.7 541 13.3 541L0 541Z" fill="#0066ff"></path></svg>