<svg id="visual" viewBox="0 0 960 540" width="960" height="540" xmlns="http://www.w3.org/2000/svg" xmlns:xlink="http://www.w3.org/1999/xlink" version="1.1"><rect x="0" y="0" width="960" height="540" fill="#001220"></rect><path d="M0 237L13.3 234.8C26.7 232.7 53.3 228.3 80 227.3C106.7 226.3 133.3 228.7 160 226.3C186.7 224 213.3 217 240 207.3C266.7 197.7 293.3 185.3 320 191.5C346.7 197.7 373.3 222.3 400 230C426.7 237.7 453.3 228.3 480 224.2C506.7 220 533.3 221 560 222.3C586.7 223.7 613.3 225.3 640 229.7C666.7 234 693.3 241 720 247.2C746.7 253.3 773.3 258.7 800 261.8C826.7 265 853.3 266 880 260.2C906.7 254.3 933.3 241.7 946.7 235.3L960 229L960 0L946.7 0C933.3 0 906.7 0 880 0C853.3 0 826.7 0 800 0C773.3 0 746.7 0 720 0C693.3 0 666.7 0 640 0C613.3 0 586.7 0 560 0C533.3 0 506.7 0 480 0C453.3 0 426.7 0 400 0C373.3 0 346.7 0 320 0C293.3 0 266.7 0 240 0C213.3 0 186.7 0 160 0C133.3 0 106.7 0 80 0C53.3 0 26.7 0 13.3 0L0 0Z" fill="#001122"></path><path d="M0 140L13.3 145.8C26.7 151.7 53.3 163.3 80 163.5C106.7 163.7 133.3 152.3 160 154C186.7 155.7 213.3 170.3 240 178.2C266.7 186 293.3 187 320 177.7C346.7 168.3 373.3 148.7 400 140.7C426.7 132.7 453.3 136.3 480 151.2C506.7 166 533.3 192 560 191.7C586.7 191.3 613.3 164.7 640 160.3C666.7 156 693.3 174 720 181.2C746.7 188.3 773.3 184.7 800 186.7C826.7 188.7 853.3 196.3 880 190.5C906.7 184.7 933.3 165.3 946.7 155.7L960 146L960 0L946.7 0C933.3 0 906.7 0 880 0C853.3 0 826.7 0 800 0C773.3 0 746.7 0 720 0C693.3 0 666.7 0 640 0C613.3 0 586.7 0 560 0C533.3 0 506.7 0 480 0C453.3 0 426.7 0 400 0C373.3 0 346.7 0 320 0C293.3 0 266.7 0 240 0C213.3 0 186.7 0 160 0C133.3 0 106.7 0 80 0C53.3 0 26.7 0 13.3 0L0 0Z" fill="#002955"></path><path d="M0 122L13.3 120.7C26.7 119.3 53.3 116.7 80 118.2C106.7 119.7 133.3 125.3 160 122.7C186.7 120 213.3 109 240 113.8C266.7 118.7 293.3 139.3 320 145.8C346.7 152.3 373.3 144.7 400 143C426.7 141.3 453.3 145.7 480 150.7C506.7 155.7 533.3 161.3 560 163.8C586.7 166.3 613.3 165.7 640 164C666.7 162.3 693.3 159.7 720 157.5C746.7 155.3 773.3 153.7 800 150.2C826.7 146.7 853.3 141.3 880 145C906.7 148.7 933.3 161.3 946.7 167.7L960 174L960 0L946.7 0C933.3 0 906.7 0 880 0C853.3 0 826.7 0 800 0C773.3 0 746.7 0 720 0C693.3 0 666.7 0 640 0C613.3 0 586.7 0 560 0C533.3 0 506.7 0 480 0C453.3 0 426.7 0 400 0C373.3 0 346.7 0 320 0C293.3 0 266.7 0 240 0C213.3 0 186.7 0 160 0C133.3 0 106.7 0 80 0C53.3 0 26.7 0 13.3 0L0 0Z" fill="#003e8c"></path><path d="M0 115L13.3 114.5C26.7 114 53.3 113 80 105.8C106.7 98.7 133.3 85.3 160 76.7C186.7 68 213.3 64 240 67.2C266.7 70.3 293.3 80.7 320 80.7C346.7 80.7 373.3 70.3 400 75.2C426.7 80 453.3 100 480 105.8C506.7 111.7 533.3 103.3 560 98.3C586.7 93.3 613.3 91.7 640 87.2C666.7 82.7 693.3 75.3 720 72.2C746.7 69 773.3 70 800 76.2C826.7 82.3 853.3 93.7 880 93.2C906.7 92.7 933.3 80.3 946.7 74.2L960 68L960 0L946.7 0C933.3 0 906.7 0 880 0C853.3 0 826.7 0 800 0C773.3 0 746.7 0 720 0C693.3 0 666.7 0 640 0C613.3 0 586.7 0 560 0C533.3 0 506.7 0 480 0C453.3 0 426.7 0 400 0C373.3 0 346.7 0 320 0C293.3 0 266.7 0 240 0C213.3 0 186.7 0 160 0C133.3 0 106.7 0 80 0C53.3 0 26.7 0 13.3 0L0 0Z" fill="#0052c5"></path><path d="M0 78L13.3 76.5C26.7 75 53.3 72 80 64.8C106.7 57.7 133.3 46.3 160 42C186.7 37.7 213.3 40.3 240 42C266.7 43.7 293.3 44.3 320 47.8C346.7 51.3 373.3 57.7 400 61.3C426.7 65 453.3 66 480 65.3C506.7 64.7 533.3 62.3 560 57.8C586.7 53.3 613.3 46.7 640 48.2C666.7 49.7 693.3 59.3 720 58.7C746.7 58 773.3 47 800 47C826.7 47 853.3 58 880 61.2C906.7 64.3 933.3 59.7 946.7 57.3L960 55L960 0L946.7 0C933.3 0 906.7 0 880 0C853.3 0 826.7 0 800 0C773.3 0 746.7 0 720 0C693.3 0 666.7 0 640 0C613.3 0 586.7 0 560 0C533.3 0 506.7 0 480 0C453.3 0 426.7 0 400 0C373.3 0 346.7 0 320 0C293.3 0 266.7 0 240 0C213.3 0 186.7 0 160 0C133.3 0 106.7 0 80 0C53.3 0 26.7 0 13.3 0L0 0Z" fill="#0066ff"></path></svg>