<svg id="visual" viewBox="0 0 960 540" width="960" height="540" xmlns="http://www.w3.org/2000/svg" xmlns:xlink="http://www.w3.org/1999/xlink" version="1.1"><rect x="0" y="0" width="960" height="540" fill="#001122"></rect><path d="M0 392L51 392L51 397L101 397L101 389L152 389L152 396L202 396L202 397L253 397L253 396L303 396L303 396L354 396L354 403L404 403L404 398L455 398L455 398L505 398L505 399L556 399L556 401L606 401L606 391L657 391L657 390L707 390L707 402L758 402L758 401L808 401L808 398L859 398L859 392L909 392L909 391L960 391L960 402L960 541L960 541L909 541L909 541L859 541L859 541L808 541L808 541L758 541L758 541L707 541L707 541L657 541L657 541L606 541L606 541L556 541L556 541L505 541L505 541L455 541L455 541L404 541L404 541L354 541L354 541L303 541L303 541L253 541L253 541L202 541L202 541L152 541L152 541L101 541L101 541L51 541L51 541L0 541Z" fill="#001122"></path><path d="M0 412L51 412L51 403L101 403L101 415L152 415L152 403L202 403L202 415L253 415L253 408L303 408L303 408L354 408L354 413L404 413L404 409L455 409L455 410L505 410L505 404L556 404L556 410L606 410L606 409L657 409L657 408L707 408L707 413L758 413L758 414L808 414L808 405L859 405L859 406L909 406L909 408L960 408L960 415L960 541L960 541L909 541L909 541L859 541L859 541L808 541L808 541L758 541L758 541L707 541L707 541L657 541L657 541L606 541L606 541L556 541L556 541L505 541L505 541L455 541L455 541L404 541L404 541L354 541L354 541L303 541L303 541L253 541L253 541L202 541L202 541L152 541L152 541L101 541L101 541L51 541L51 541L0 541Z" fill="#001a34"></path><path d="M0 415L51 415L51 427L101 427L101 416L152 416L152 414L202 414L202 417L253 417L253 418L303 418L303 420L354 420L354 421L404 421L404 417L455 417L455 414L505 414L505 425L556 425L556 420L606 420L606 414L657 414L657 416L707 416L707 421L758 421L758 419L808 419L808 423L859 423L859 427L909 427L909 423L960 423L960 421L960 541L960 541L909 541L909 541L859 541L859 541L808 541L808 541L758 541L758 541L707 541L707 541L657 541L657 541L606 541L606 541L556 541L556 541L505 541L505 541L455 541L455 541L404 541L404 541L354 541L354 541L303 541L303 541L253 541L253 541L202 541L202 541L152 541L152 541L101 541L101 541L51 541L51 541L0 541Z" fill="#002347"></path><path d="M0 430L51 430L51 428L101 428L101 431L152 431L152 436L202 436L202 432L253 432L253 437L303 437L303 437L354 437L354 434L404 434L404 434L455 434L455 425L505 425L505 433L556 433L556 428L606 428L606 437L657 437L657 428L707 428L707 430L758 430L758 438L808 438L808 425L859 425L859 429L909 429L909 434L960 434L960 435L960 541L960 541L909 541L909 541L859 541L859 541L808 541L808 541L758 541L758 541L707 541L707 541L657 541L657 541L606 541L606 541L556 541L556 541L505 541L505 541L455 541L455 541L404 541L404 541L354 541L354 541L303 541L303 541L253 541L253 541L202 541L202 541L152 541L152 541L101 541L101 541L51 541L51 541L0 541Z" fill="#002b5a"></path><path d="M0 438L51 438L51 444L101 444L101 444L152 444L152 439L202 439L202 448L253 448L253 447L303 447L303 440L354 440L354 449L404 449L404 439L455 439L455 437L505 437L505 445L556 445L556 444L606 444L606 442L657 442L657 439L707 439L707 442L758 442L758 441L808 441L808 449L859 449L859 441L909 441L909 449L960 449L960 444L960 541L960 541L909 541L909 541L859 541L859 541L808 541L808 541L758 541L758 541L707 541L707 541L657 541L657 541L606 541L606 541L556 541L556 541L505 541L505 541L455 541L455 541L404 541L404 541L354 541L354 541L303 541L303 541L253 541L253 541L202 541L202 541L152 541L152 541L101 541L101 541L51 541L51 541L0 541Z" fill="#00336e"></path><path d="M0 455L51 455L51 459L101 459L101 459L152 459L152 455L202 455L202 456L253 456L253 462L303 462L303 461L354 461L354 461L404 461L404 457L455 457L455 452L505 452L505 452L556 452L556 454L606 454L606 453L657 453L657 451L707 451L707 454L758 454L758 460L808 460L808 460L859 460L859 454L909 454L909 461L960 461L960 450L960 541L960 541L909 541L909 541L859 541L859 541L808 541L808 541L758 541L758 541L707 541L707 541L657 541L657 541L606 541L606 541L556 541L556 541L505 541L505 541L455 541L455 541L404 541L404 541L354 541L354 541L303 541L303 541L253 541L253 541L202 541L202 541L152 541L152 541L101 541L101 541L51 541L51 541L0 541Z" fill="#003a82"></path><path d="M0 467L51 467L51 471L101 471L101 463L152 463L152 473L202 473L202 464L253 464L253 466L303 466L303 466L354 466L354 467L404 467L404 466L455 466L455 462L505 462L505 473L556 473L556 461L606 461L606 469L657 469L657 470L707 470L707 469L758 469L758 461L808 461L808 464L859 464L859 465L909 465L909 472L960 472L960 467L960 541L960 541L909 541L909 541L859 541L859 541L808 541L808 541L758 541L758 541L707 541L707 541L657 541L657 541L606 541L606 541L556 541L556 541L505 541L505 541L455 541L455 541L404 541L404 541L354 541L354 541L303 541L303 541L253 541L253 541L202 541L202 541L152 541L152 541L101 541L101 541L51 541L51 541L0 541Z" fill="#004296"></path><path d="M0 481L51 481L51 475L101 475L101 477L152 477L152 482L202 482L202 479L253 479L253 475L303 475L303 477L354 477L354 480L404 480L404 478L455 478L455 485L505 485L505 477L556 477L556 482L606 482L606 476L657 476L657 482L707 482L707 476L758 476L758 482L808 482L808 481L859 481L859 476L909 476L909 476L960 476L960 477L960 541L960 541L909 541L909 541L859 541L859 541L808 541L808 541L758 541L758 541L707 541L707 541L657 541L657 541L606 541L606 541L556 541L556 541L505 541L505 541L455 541L455 541L404 541L404 541L354 541L354 541L303 541L303 541L253 541L253 541L202 541L202 541L152 541L152 541L101 541L101 541L51 541L51 541L0 541Z" fill="#0049ab"></path><path d="M0 490L51 490L51 492L101 492L101 492L152 492L152 487L202 487L202 496L253 496L253 487L303 487L303 492L354 492L354 494L404 494L404 490L455 490L455 495L505 495L505 491L556 491L556 485L606 485L606 495L657 495L657 488L707 488L707 486L758 486L758 496L808 496L808 486L859 486L859 487L909 487L909 492L960 492L960 487L960 541L960 541L909 541L909 541L859 541L859 541L808 541L808 541L758 541L758 541L707 541L707 541L657 541L657 541L606 541L606 541L556 541L556 541L505 541L505 541L455 541L455 541L404 541L404 541L354 541L354 541L303 541L303 541L253 541L253 541L202 541L202 541L152 541L152 541L101 541L101 541L51 541L51 541L0 541Z" fill="#0050bf"></path><path d="M0 502L51 502L51 505L101 505L101 504L152 504L152 507L202 507L202 507L253 507L253 503L303 503L303 501L354 501L354 500L404 500L404 507L455 507L455 505L505 505L505 507L556 507L556 499L606 499L606 498L657 498L657 503L707 503L707 502L758 502L758 506L808 506L808 508L859 508L859 507L909 507L909 499L960 499L960 505L960 541L960 541L909 541L909 541L859 541L859 541L808 541L808 541L758 541L758 541L707 541L707 541L657 541L657 541L606 541L606 541L556 541L556 541L505 541L505 541L455 541L455 541L404 541L404 541L354 541L354 541L303 541L303 541L253 541L253 541L202 541L202 541L152 541L152 541L101 541L101 541L51 541L51 541L0 541Z" fill="#0058d4"></path><path d="M0 517L51 517L51 514L101 514L101 513L152 513L152 519L202 519L202 518L253 518L253 518L303 518L303 518L354 518L354 515L404 515L404 515L455 515L455 513L505 513L505 518L556 518L556 511L606 511L606 519L657 519L657 512L707 512L707 520L758 520L758 518L808 518L808 511L859 511L859 516L909 516L909 510L960 510L960 511L960 541L960 541L909 541L909 541L859 541L859 541L808 541L808 541L758 541L758 541L707 541L707 541L657 541L657 541L606 541L606 541L556 541L556 541L505 541L505 541L455 541L455 541L404 541L404 541L354 541L354 541L303 541L303 541L253 541L253 541L202 541L202 541L152 541L152 541L101 541L101 541L51 541L51 541L0 541Z" fill="#005fea"></path><path d="M0 528L51 528L51 523L101 523L101 524L152 524L152 526L202 526L202 523L253 523L253 528L303 528L303 523L354 523L354 525L404 525L404 522L455 522L455 524L505 524L505 530L556 530L556 528L606 528L606 522L657 522L657 525L707 525L707 526L758 526L758 524L808 524L808 525L859 525L859 531L909 531L909 524L960 524L960 530L960 541L960 541L909 541L909 541L859 541L859 541L808 541L808 541L758 541L758 541L707 541L707 541L657 541L657 541L606 541L606 541L556 541L556 541L505 541L505 541L455 541L455 541L404 541L404 541L354 541L354 541L303 541L303 541L253 541L253 541L202 541L202 541L152 541L152 541L101 541L101 541L51 541L51 541L0 541Z" fill="#0066ff"></path></svg>